<svg version="1.2" xmlns="http://www.w3.org/2000/svg" viewBox="0 0 4044 1100" width="4044" height="1100"><defs><clipPath clipPathUnits="userSpaceOnUse" id="cp1"><path d="m771 1000.5c-119.49 132.75-322.51 132.75-442 0-145.41-161.56-253.38-355.34-315.7-566.61-51.21-173.59 50.3-355.79 220.99-396.63 207.74-49.71 423.68-49.71 631.42 0 170.69 40.84 272.2 223.04 220.99 396.63-62.32 211.27-170.29 405.05-315.7 566.61z"/></clipPath><linearGradient id="P" gradientUnits="userSpaceOnUse"/><linearGradient id="g1" x1="137.5" y1="962.5" x2="962.5" y2="137.5" href="#P"><stop stop-color="#f22121"/><stop offset="1" stop-color="#fa611a"/></linearGradient></defs><style>.a{fill:url(#g1)}.b{fill:#fff}</style><g clip-path="url(#cp1)"><path class="a" d="m771 1000.5c-119.5 132.8-322.5 132.8-442 0-145.4-161.6-253.4-355.3-315.7-566.6-51.2-173.6 50.3-355.8 221-396.6 207.7-49.8 423.7-49.8 631.4 0 170.7 40.8 272.2 223 221 396.6-62.3 211.3-170.3 405-315.7 566.6z"/><path class="b" d="m569.2 80c61.2 254.2-240.4 477.7-147.2 729.7-68.9-54.8-112.3-135.6-119.6-223.3-3.6-42.6 1.5-85.3 14.6-125.6-89.4 74.6-141.2 185-141.4 301.5 0 217.5 176.2 393.7 393.6 393.7 217.5 0 393.7-176.2 393.7-393.7 0-134.2-97.5-235.4-80.9-436.5 0 0-110 92.3-110 197.2 0 72.1 22 83.3 22 127 0 43.4-35.2 78.5-78.5 78.5-26.6 0-51.5-13.5-65.9-35.8-13.6-21-53.2-87.8 28.8-272.4 67.9-152.8-18.9-281.6-109.2-340.3z"/></g><path  d="m2519.6 389.3v414.2h92v-149.6h161.1v-80.5h-161.1v-103.6h184.1v-80.5z"/><path  d="m2358.5 504.3h92.1v299.2h-92.1z"/><path  d="m2404.6 469.8c-36.3 0-51.8-20.7-51.8-51.8 0-31 15.5-51.7 51.8-51.7 36.2 0 51.7 20.7 51.7 51.7 0 31.1-15.5 51.8-51.7 51.8z"/><path  d="m2013.4 389.3v414.2h92v-94.5q23.8-2.6 45-8l64.7 102.5h108.9l-89.8-142.1c44-34.5 70.4-86.9 76.8-157.1h-92.9c-9.7 67-48.7 109.1-112.7 122.2v-237.2z"/><path  d="m1852.3 504.3h92.1v299.2h-92.1z"/><path  d="m1898.3 469.8c-36.2 0-51.7-20.7-51.7-51.8 0-31 15.5-51.7 51.7-51.7 36.3 0 51.8 20.7 51.8 51.7 0 31.1-15.5 51.8-51.8 51.8z"/><path fill-rule="evenodd" d="m3123.6 653.9c0 92-51.8 155.3-155.3 155.3-103.5 0-155.3-63.3-155.3-155.3 0-92 51.8-155.3 155.3-155.3 103.5 0 155.3 63.3 155.3 155.3zm-218.6 0c0 44.3 17.3 74.8 63.3 74.8 46 0 63.3-30.5 63.3-74.8 0-44.3-17.3-74.8-63.3-74.8-46 0-63.3 30.5-63.3 74.8z"/><path  d="m3342.2 498.6c-44.7 0-72.3 21.2-86.3 46.5v-40.8h-92v299.2h92v-132.4c0-63.2 40.3-92 86.3-92 14.4 0 23.5 1.8 28.8 2.9v-80.5c-4.6-1.8-22.9-2.9-28.8-2.9z"/><path  d="m1177.2 389.3l115.9 414.2h125.8l75.2-276.7 75.2 276.7h125.7l115.9-414.2h-95.5l-83.3 305.3-83.2-305.3h-109.7l-83.2 305.3-83.2-305.3z"/><path fill-rule="evenodd" d="m4044 653.9q0 14.9-1.8 28.8h-213.8c6.7 28.1 25.8 46 63.2 46 28.7 0 50.5-9.1 60.4-24.5l83.8 36.1c-32.1 44.5-72.3 68.9-147.1 68.9-103.6 0-155.3-63.3-155.3-155.3 0-92 51.7-155.3 155.3-155.3 103.5 0 155.3 63.3 155.3 155.3zm-215.6-28.8h120.5c-6.7-28.2-25-46-60.2-46-35.2 0-53.6 17.8-60.3 46z"/><path fill-rule="evenodd" d="m3601.1 527.3v-23h92v281.9c0 92-51.8 155.3-155.3 155.3-74.8 0-115.1-24.4-147.1-68.9l83.8-36.1c9.9 15.4 31.7 24.5 60.4 24.5q1.5 0 2.9-0.1v0.1c46 0 63.3-30.5 63.3-74.8v-5.8c-17.3 23.1-52.3 28.8-74.8 28.8-92.1 0-143.8-63.3-143.8-155.3 0-92 51.7-155.3 143.8-155.3 22.5 0 57.5 5.7 74.8 28.7zm-126.6 126.6c0 44.3 17.3 74.8 63.3 74.8 46 0 63.3-30.5 63.3-74.8 0-44.3-17.3-74.8-63.3-74.8-46 0-63.3 30.5-63.3 74.8z"/></svg>